<svg xmlns="http://www.w3.org/2000/svg" viewBox="0 0 64 64">
  <rect width="64" height="64" rx="14" fill="#373636"/>
  <g transform="translate(8.3 8.5) scale(0.1605)" fill="#f8c013">
    <g transform="translate(0,295) scale(0.1,-0.1)">
      <path d="M2120 2820 c-203 -25 -415 -89 -627 -190 -399 -190 -710 -193 -1093 -13 -143 67 -252 114 -257 109 -26 -25 71 -587 125 -727 20 -52 345 -118 617 -126 330 -10 548 40 904 207 341 159 638 164 988 16 l103 -44 0 339 0 338 -67 20 c-108 31 -149 41 -236 57 -102 18 -357 26 -457 14z"/>
      <path d="M2135 1804 c-194 -21 -416 -87 -640 -191 -244 -114 -357 -143 -555 -143 -158 0 -294 27 -448 89 l-52 21 32 -58 c101 -182 240 -375 377 -527 138 -152 131 -148 231 -140 209 15 431 78 670 190 231 107 356 139 550 138 174 0 332 -37 506 -118 l74 -34 0 339 0 339 -78 25 c-183 57 -484 89 -667 70z"/>
      <path d="M2140 723 c-173 -18 -412 -87 -588 -168 -121 -57 -123 -49 38 -134 367 -191 739 -293 1133 -308 l157 -6 0 262 0 261 -27 11 c-175 67 -501 104 -713 82z"/>
    </g>
  </g>
</svg>
